<svg width="200" height="200" viewBox="0 0 200 200" xmlns="http://www.w3.org/2000/svg">
  <!-- Speech Bubble -->
  <path d="M50,40 C30,40 20,60 20,80 C20,100 40,120 60,120 L80,120 L90,140 L100,120 L140,120 C160,120 180,100 180,80 C180,60 160,40 140,40 L50,40 Z" fill="#4285F4"/>
  
  <!-- Flame -->
  <path d="M100,60 C90,40 110,30 100,10 C90,30 110,40 100,60 Z" fill="#FFA000"/>
  <path d="M100,70 C80,50 110,30 100,10 C90,30 120,50 100,70 Z" fill="#FFCA28"/>
  <path d="M100,70 C85,80 95,90 100,100 C105,90 115,80 100,70 Z" fill="#FF7043"/>
  
  <!-- Optional: Small flame inside bubble for emphasis -->
  <path d="M100,90 C95,80 105,80 100,70 C95,80 85,80 100,90 Z" fill="#FF5722" opacity="0.8"/>
</svg>